# Blender v2.76 (sub 0) OBJ File: 'wasserschuessel.blend'
# www.blender.org
mtllib Wasserschuessel.mtl
o Pot_Cylinder
v 0.000000 0.027279 -0.128699
v 0.049251 0.027279 -0.118903
v 0.091004 0.027279 -0.091004
v 0.118903 0.027279 -0.049251
v 0.128699 0.027279 -0.000000
v 0.118903 0.027279 0.049251
v 0.091004 0.027279 0.091004
v 0.049251 0.027279 0.118903
v 0.000000 0.027279 0.128699
v -0.049251 0.027279 0.118903
v -0.091004 0.027279 0.091004
v -0.118903 0.027279 0.049251
v -0.128699 0.027279 -0.000000
v -0.118903 0.027279 -0.049251
v -0.091004 0.027279 -0.091004
v -0.049251 0.027279 -0.118903
v 0.475491 0.027279 -1.147937
v -0.000000 0.027279 -1.242518
v 0.878593 0.027279 -0.878593
v 1.147937 0.027279 -0.475491
v 1.242518 0.027279 0.000000
v 1.147937 0.027279 0.475491
v 0.878593 0.027279 0.878593
v 0.475491 0.027279 1.147937
v 0.000000 0.027279 1.242518
v -0.475491 0.027279 1.147937
v -0.878593 0.027279 0.878593
v -1.147937 0.027279 0.475491
v -1.242518 0.027279 -0.000000
v -1.147937 0.027279 -0.475491
v -0.878592 0.027279 -0.878593
v -0.475490 0.027279 -1.147937
v -0.000000 0.385040 -1.115164
v 1.115164 0.385040 0.000000
v 1.030277 0.385040 0.426755
v -0.788540 0.385040 0.788540
v -1.115164 0.385040 -0.000000
v -0.426754 0.385040 -1.030278
v 0.375642 0.406126 -0.906881
v -0.000000 0.406126 -0.981600
v 0.694096 0.406126 -0.694096
v 0.906881 0.406126 -0.375642
v 0.981600 0.406126 0.000000
v 0.906881 0.406126 0.375642
v 0.694096 0.406126 0.694096
v 0.375642 0.406126 0.906881
v 0.000000 0.406126 0.981600
v -0.375642 0.406126 0.906881
v -0.694096 0.406126 0.694097
v -0.906881 0.406126 0.375642
v -0.981600 0.406126 -0.000000
v -0.906881 0.406126 -0.375642
v -0.694096 0.406126 -0.694097
v -0.375642 0.406126 -0.906881
v 0.335873 0.157100 -0.810869
v 0.000000 0.157100 -0.877678
v 0.620612 0.157100 -0.620612
v 0.810869 0.157100 -0.335873
v 0.877678 0.157100 0.000000
v 0.810869 0.157100 0.335873
v 0.620612 0.157100 0.620612
v 0.335873 0.157100 0.810869
v 0.000000 0.157100 0.877678
v -0.335873 0.157100 0.810869
v -0.620612 0.157100 0.620612
v -0.810869 0.157100 0.335873
v -0.877678 0.157100 -0.000000
v -0.810869 0.157100 -0.335873
v -0.620612 0.157100 -0.620612
v -0.335873 0.157100 -0.810869
v 0.426755 0.385040 -1.030277
v 0.788540 0.385040 -0.788540
v 1.030277 0.385040 -0.426755
v 0.788540 0.385040 0.788540
v 0.426755 0.385040 1.030277
v 0.000000 0.385040 1.115164
v -0.426755 0.385040 1.030277
v -1.030277 0.385040 0.426755
v -1.030277 0.385040 -0.426755
v -0.788540 0.385040 -0.788540
v 1.030277 0.346458 0.426755
v 0.788540 0.346458 0.788540
v -1.030277 0.346458 -0.426755
v -0.788540 0.346458 -0.788540
v 0.426755 0.346458 1.030277
v -0.426754 0.346458 -1.030278
v 0.000000 0.346458 1.115164
v -0.000000 0.346458 -1.115164
v 0.426755 0.346458 -1.030277
v -0.426755 0.346458 1.030277
v 0.788540 0.346458 -0.788540
v -0.788540 0.346458 0.788540
v 1.030277 0.346458 -0.426755
v -1.030277 0.346458 0.426755
v 1.115164 0.346458 0.000000
v -1.115164 0.346458 -0.000000
v -0.714799 0.406126 0.714800
v -0.933930 0.406126 0.386847
v 0.933930 0.406126 -0.386847
v 1.010879 0.406126 0.000000
v -1.010879 0.406126 -0.000000
v 0.933930 0.406126 0.386847
v -0.933930 0.406126 -0.386847
v 0.714799 0.406126 0.714799
v -0.714799 0.406126 -0.714800
v 0.386847 0.406126 0.933930
v -0.386846 0.406126 -0.933931
v 0.000000 0.406126 1.010879
v -0.000000 0.406126 -1.010879
v 0.386847 0.406126 -0.933930
v -0.386846 0.406126 0.933931
v 0.714799 0.406126 -0.714799
v -0.335873 0.183645 -0.810869
v 0.000000 0.183645 -0.877678
v 0.000000 0.183645 0.877678
v -0.335873 0.183645 0.810869
v 0.335873 0.183645 -0.810869
v 0.620612 0.183645 -0.620612
v -0.620612 0.183645 0.620612
v 0.810869 0.183645 -0.335873
v -0.810869 0.183645 0.335873
v 0.877678 0.183645 0.000000
v -0.877678 0.183645 -0.000000
v 0.810869 0.183645 0.335873
v -0.810869 0.183645 -0.335873
v 0.620612 0.183645 0.620612
v -0.620612 0.183645 -0.620612
v 0.335873 0.183645 0.810869
vt 0.087184 0.063579
vt 0.089338 0.068405
vt 0.089242 0.069183
vt 0.087151 0.064497
vt 0.113677 0.100361
vt 0.113718 0.111108
vt 0.113469 0.111101
vt 0.113428 0.100354
vt 0.113662 0.136012
vt 0.113677 0.151210
vt 0.113428 0.151217
vt 0.113413 0.136019
vt 0.102956 0.150850
vt 0.102979 0.162162
vt 0.102803 0.162162
vt 0.102781 0.150850
vt 0.087184 0.126974
vt 0.084854 0.126974
vt 0.084887 0.126056
vt 0.087151 0.126056
vt 0.084854 0.063579
vt 0.084887 0.064497
vt 0.089338 0.122149
vt 0.089242 0.121370
vt 0.082700 0.068405
vt 0.082796 0.069183
vt 0.081052 0.077322
vt 0.081196 0.077842
vt 0.091878 0.101582
vt 0.090986 0.113232
vt 0.090842 0.112712
vt 0.091708 0.101399
vt 0.080160 0.088972
vt 0.080330 0.089154
vt 0.091878 0.088972
vt 0.091708 0.089154
vt 0.081052 0.113232
vt 0.080160 0.101582
vt 0.080330 0.101399
vt 0.081196 0.112712
vt 0.090986 0.077322
vt 0.090842 0.077842
vt 0.082700 0.122149
vt 0.082796 0.121370
vt 0.086310 0.218430
vt 0.082061 0.195444
vt 0.079762 0.165412
vt 0.079762 0.132904
vt 0.082061 0.102872
vt 0.086310 0.079886
vt 0.091861 0.067446
vt 0.097869 0.067446
vt 0.103421 0.079886
vt 0.107669 0.102872
vt 0.109969 0.132904
vt 0.109969 0.165412
vt 0.107669 0.195444
vt 0.103421 0.218430
vt 0.097869 0.230870
vt 0.091861 0.230870
vt 0.080449 0.233446
vt 0.080461 0.244759
vt 0.080286 0.244754
vt 0.080274 0.233441
vt 0.102979 0.127292
vt 0.102956 0.138605
vt 0.102781 0.138605
vt 0.102803 0.127292
vt 0.080461 0.221201
vt 0.080286 0.221196
vt 0.103020 0.118633
vt 0.102845 0.118633
vt 0.080494 0.209889
vt 0.080319 0.209884
vt 0.079145 0.242132
vt 0.079178 0.253444
vt 0.079002 0.253449
vt 0.078969 0.242137
vt 0.082709 0.221197
vt 0.082686 0.209884
vt 0.082862 0.209884
vt 0.082884 0.221197
vt 0.079133 0.229887
vt 0.078958 0.229892
vt 0.082709 0.233442
vt 0.082884 0.233442
vt 0.079145 0.218574
vt 0.078969 0.218579
vt 0.082686 0.244755
vt 0.082862 0.244755
vt 0.079178 0.209915
vt 0.079002 0.209919
vt 0.103020 0.170821
vt 0.102845 0.170821
vt 0.080494 0.253418
vt 0.080319 0.253414
vt 0.113299 0.195905
vt 0.113313 0.211103
vt 0.111254 0.211160
vt 0.111239 0.195962
vt 0.115722 0.135955
vt 0.115737 0.151153
vt 0.113354 0.225143
vt 0.111295 0.225200
vt 0.115778 0.165193
vt 0.113718 0.165250
vt 0.115719 0.171116
vt 0.115678 0.181863
vt 0.113618 0.181921
vt 0.113659 0.171173
vt 0.115778 0.057138
vt 0.115737 0.071179
vt 0.113677 0.071121
vt 0.113718 0.057081
vt 0.115663 0.195905
vt 0.113603 0.195962
vt 0.115722 0.086376
vt 0.113663 0.086319
vt 0.115678 0.211103
vt 0.113618 0.211160
vt 0.115737 0.100418
vt 0.115778 0.111166
vt 0.115719 0.225143
vt 0.113659 0.225200
vt 0.113354 0.171116
vt 0.113313 0.181863
vt 0.111254 0.181921
vt 0.111295 0.171173
vt 0.115737 0.121913
vt 0.113677 0.121971
vt 0.113718 0.111223
vt 0.078958 0.102876
vt 0.078958 0.087678
vt 0.090019 0.127663
vt 0.087424 0.133479
vt 0.104052 0.138605
vt 0.104052 0.150850
vt 0.081557 0.244789
vt 0.081590 0.253449
vt 0.104075 0.162162
vt 0.104116 0.170821
vt 0.080241 0.218544
vt 0.081613 0.233442
vt 0.080229 0.229857
vt 0.081613 0.221197
vt 0.080241 0.242102
vt 0.081590 0.209884
vt 0.104116 0.118633
vt 0.104075 0.127292
vt 0.081545 0.233476
vt 0.113428 0.121978
vt 0.110990 0.195969
vt 0.111005 0.181927
vt 0.113469 0.111230
vt 0.111046 0.171180
vt 0.113410 0.225207
vt 0.113369 0.211167
vt 0.113413 0.086312
vt 0.113354 0.195969
vt 0.113428 0.071114
vt 0.113369 0.181927
vt 0.113469 0.057074
vt 0.113410 0.171180
vt 0.113469 0.165257
vt 0.111046 0.225207
vt 0.111005 0.211167
vt 0.084614 0.133479
vt 0.082019 0.127663
vt 0.090019 0.062890
vt 0.092005 0.073637
vt 0.080033 0.116917
vt 0.093080 0.087678
vt 0.093080 0.102876
vt 0.080033 0.073637
vt 0.092005 0.116917
vt 0.082019 0.062890
vt 0.084614 0.057074
vt 0.087424 0.057074
vn -0.103300 0.993700 0.042800
vn -0.079100 0.993700 0.079100
vn 0.343500 0.874000 -0.343500
vn 0.448900 0.874000 -0.185900
vn 0.000000 0.193200 -0.981100
vn -0.375500 0.193200 -0.906500
vn -0.307000 0.597100 -0.741100
vn 0.000000 0.597100 -0.802100
vn 0.906500 0.193200 0.375500
vn 0.981100 0.193200 0.000000
vn 0.802100 0.597100 0.000000
vn 0.741100 0.597100 0.307000
vn 0.000000 0.222700 0.974900
vn 0.373100 0.222700 0.900700
vn 0.285500 0.665700 0.689400
vn 0.000000 0.665700 0.746200
vn 0.111900 0.993700 0.000000
vn 0.103300 0.993700 -0.042800
vn -0.448900 0.874000 0.185900
vn -0.485900 0.874000 0.000000
vn -0.111900 0.993700 0.000000
vn 0.485900 0.874000 0.000000
vn 0.103300 0.993700 0.042800
vn -0.448900 0.874000 -0.185900
vn -0.103300 0.993700 -0.042800
vn 0.448900 0.874000 0.185900
vn -0.079100 0.993700 -0.079100
vn 0.343500 0.874000 0.343500
vn 0.042800 0.993700 0.103300
vn 0.079100 0.993700 0.079100
vn -0.343500 0.874000 -0.343500
vn -0.185900 0.874000 -0.448900
vn -0.042800 0.993700 -0.103300
vn 0.185900 0.874000 0.448900
vn 0.000000 0.993700 0.111900
vn 0.000000 0.874000 -0.485900
vn 0.042800 0.993700 -0.103300
vn 0.000000 0.993700 -0.111900
vn 0.000000 0.874000 0.485900
vn -0.185900 0.874000 0.448900
vn -0.042800 0.993700 0.103300
vn 0.185900 0.874000 -0.448900
vn 0.079100 0.993700 -0.079100
vn -0.343500 0.874000 0.343500
vn -0.285500 0.665700 0.689400
vn 0.527600 0.665700 0.527600
vn 0.689400 0.665700 0.285500
vn 0.746200 0.665700 0.000000
vn 0.689400 0.665700 -0.285500
vn 0.527600 0.665700 -0.527600
vn 0.285500 0.665700 -0.689400
vn 0.000000 0.665700 -0.746200
vn -0.285500 0.665700 -0.689400
vn -0.527600 0.665700 -0.527600
vn -0.689400 0.665700 -0.285500
vn -0.746200 0.665700 0.000000
vn -0.689400 0.665700 0.285500
vn -0.527600 0.665700 0.527600
vn 0.373100 0.222700 -0.900700
vn 0.000000 0.222700 -0.974900
vn -0.689300 0.222700 0.689300
vn -0.373100 0.222700 0.900700
vn 0.689300 0.222700 -0.689400
vn -0.900700 0.222700 0.373100
vn 0.900700 0.222700 -0.373100
vn -0.974900 0.222700 0.000000
vn 0.974900 0.222700 0.000000
vn -0.900700 0.222700 -0.373100
vn 0.900700 0.222700 0.373100
vn -0.689300 0.222700 -0.689300
vn 0.689300 0.222700 0.689400
vn -0.373100 0.222700 -0.900700
vn -0.790400 -0.517800 -0.327400
vn -0.855500 -0.517800 0.000000
vn -0.981100 0.193200 0.000000
vn -0.906500 0.193200 -0.375500
vn 0.790400 -0.517800 0.327400
vn 0.855500 -0.517800 0.000000
vn -0.790400 -0.517800 0.327400
vn -0.906500 0.193200 0.375500
vn 0.790400 -0.517800 -0.327400
vn 0.906500 0.193200 -0.375500
vn -0.604900 -0.517800 0.604900
vn -0.693800 0.193200 0.693800
vn 0.604900 -0.517800 -0.604900
vn 0.693800 0.193200 -0.693800
vn -0.327400 -0.517800 0.790400
vn -0.375500 0.193200 0.906500
vn 0.327400 -0.517800 -0.790400
vn 0.375500 0.193200 -0.906500
vn 0.000000 -0.517800 0.855500
vn 0.000000 0.193200 0.981100
vn 0.000000 -0.517800 -0.855500
vn -0.327400 -0.517800 -0.790400
vn 0.327400 -0.517800 0.790400
vn 0.375500 0.193200 0.906500
vn -0.604900 -0.517800 -0.604900
vn -0.693800 0.193200 -0.693800
vn 0.604900 -0.517800 0.604900
vn 0.693800 0.193200 0.693800
vn 0.567200 0.597100 0.567200
vn -0.741100 0.597100 -0.307000
vn -0.567200 0.597100 -0.567200
vn 0.307000 0.597100 0.741100
vn 0.000000 0.597100 0.802100
vn 0.307000 0.597100 -0.741100
vn -0.307000 0.597100 0.741100
vn 0.567200 0.597100 -0.567200
vn -0.567200 0.597100 0.567200
vn 0.741100 0.597100 -0.307000
vn -0.741100 0.597100 0.307000
vn -0.802100 0.597100 0.000000
vn 0.000000 -1.000000 0.000000
usemtl color_material
s 1
f 98/1/1 97/2/2 49/3/3 50/4/4
f 88/5/5 86/6/6 38/7/7 33/8/8
f 81/9/9 95/10/10 34/11/11 35/12/12
f 114/13/13 113/14/14 70/15/15 56/16/16
f 100/17/17 99/18/18 42/19/19 43/20/20
f 101/21/21 98/1/1 50/4/4 51/22/22
f 102/23/23 100/17/17 43/20/20 44/24/24
f 103/25/25 101/21/21 51/22/22 52/26/26
f 105/27/27 103/25/25 52/26/26 53/28/28
f 106/29/29 104/30/30 45/31/31 46/32/32
f 107/33/33 105/27/27 53/28/28 54/34/34
f 108/35/35 106/29/29 46/32/32 47/36/36
f 110/37/37 109/38/38 40/39/39 39/40/40
f 109/38/38 107/33/33 54/34/34 40/39/39
f 111/41/41 108/35/35 47/36/36 48/42/42
f 112/43/43 110/37/37 39/40/40 41/44/44
f 97/2/2 111/41/41 48/42/42 49/3/3
f 99/18/18 112/43/43 41/44/44 42/19/19
f 55/45/45 56/46/16 70/47/15 69/48/46 68/49/47 67/50/48 66/51/49 65/52/50 64/53/51 63/54/52 62/55/53 61/56/54 60/57/55 59/58/56 58/59/57 57/60/58
f 116/61/59 115/62/60 63/63/52 64/64/51
f 118/65/61 117/66/62 55/67/45 57/68/58
f 119/69/63 116/61/59 64/64/51 65/70/50
f 120/71/64 118/65/61 57/68/58 58/72/57
f 121/73/65 119/69/63 65/70/50 66/74/49
f 122/75/66 120/76/64 58/77/57 59/78/56
f 123/79/67 121/80/65 66/81/49 67/82/48
f 124/83/68 122/75/66 59/78/56 60/84/55
f 125/85/69 123/79/67 67/82/48 68/86/47
f 126/87/70 124/83/68 60/84/55 61/88/54
f 127/89/71 125/85/69 68/86/47 69/90/46
f 128/91/72 126/87/70 61/88/54 62/92/53
f 113/14/14 127/93/71 69/94/46 70/15/15
f 115/62/60 128/95/72 62/96/53 63/63/52
f 117/66/62 114/13/13 56/16/16 55/67/45
f 30/97/73 29/98/74 96/99/75 83/100/76
f 22/101/77 21/102/78 95/10/10 81/9/9
f 29/98/74 28/103/79 94/104/80 96/99/75
f 21/102/78 20/105/81 93/106/82 95/10/10
f 28/107/79 27/108/83 92/109/84 94/110/80
f 20/111/81 19/112/85 91/113/86 93/114/82
f 27/108/83 26/115/87 90/116/88 92/109/84
f 19/112/85 17/117/89 89/118/90 91/113/86
f 26/115/87 25/119/91 87/120/92 90/116/88
f 18/121/93 32/122/94 86/6/6 88/5/5
f 17/117/89 18/121/93 88/5/5 89/118/90
f 25/119/91 24/123/95 85/124/96 87/120/92
f 32/125/94 31/126/97 84/127/98 86/128/6
f 24/122/95 23/129/99 82/130/100 85/131/96
f 31/126/97 30/97/73 83/100/76 84/127/98
f 33/132/8 38/133/7 107/33/33 109/38/38
f 35/134/12 34/135/11 100/17/17 102/23/23
f 39/136/40 40/137/39 114/13/13 117/66/62
f 47/138/36 46/139/32 128/95/72 115/62/60
f 54/140/34 53/141/28 127/93/71 113/14/14
f 46/74/32 45/142/31 126/87/70 128/91/72
f 53/138/28 52/143/26 125/85/69 127/89/71
f 45/142/31 44/144/24 124/83/68 126/87/70
f 52/143/26 51/145/22 123/79/67 125/85/69
f 44/144/24 43/146/20 122/75/66 124/83/68
f 51/145/22 50/147/4 121/80/65 123/79/67
f 43/146/20 42/96/19 120/76/64 122/75/66
f 50/147/4 49/145/3 119/69/63 121/73/65
f 42/148/19 41/149/44 118/65/61 120/71/64
f 49/145/3 48/150/42 116/61/59 119/69/63
f 41/149/44 39/136/40 117/66/62 118/65/61
f 48/150/42 47/138/36 115/62/60 116/61/59
f 40/137/39 54/140/34 113/14/14 114/13/13
f 82/130/100 81/9/9 35/12/12 74/151/101
f 84/127/98 83/100/76 79/152/102 80/153/103
f 85/131/96 82/130/100 74/151/101 75/154/104
f 86/128/6 84/127/98 80/153/103 38/155/7
f 87/120/92 85/124/96 75/156/104 76/157/105
f 89/118/90 88/5/5 33/8/8 71/158/106
f 90/116/88 87/120/92 76/157/105 77/159/107
f 91/113/86 89/118/90 71/158/106 72/160/108
f 92/109/84 90/116/88 77/159/107 36/161/109
f 93/114/82 91/113/86 72/160/108 73/162/110
f 94/110/80 92/109/84 36/161/109 78/163/111
f 95/10/10 93/106/82 73/164/110 34/11/11
f 96/99/75 94/104/80 78/165/111 37/166/112
f 83/100/76 96/99/75 37/166/112 79/152/102
f 73/167/110 72/168/108 112/43/43 99/18/18
f 36/169/109 77/170/107 111/41/41 97/2/2
f 72/168/108 71/171/106 110/37/37 112/43/43
f 77/170/107 76/172/105 108/35/35 111/41/41
f 71/171/106 33/132/8 109/38/38 110/37/37
f 76/172/105 75/173/104 106/29/29 108/35/35
f 38/133/7 80/174/103 105/27/27 107/33/33
f 75/173/104 74/175/101 104/30/30 106/29/29
f 80/174/103 79/176/102 103/25/25 105/27/27
f 74/175/101 35/134/12 102/23/23 104/30/30
f 79/176/102 37/177/112 101/21/21 103/25/25
f 37/177/112 78/178/111 98/1/1 101/21/21
f 34/135/11 73/167/110 99/18/18 100/17/17
f 78/178/111 36/169/109 97/2/2 98/1/1
f 23/129/99 22/101/77 81/9/9 82/130/100
usemtl color_material_NONE
s off
f 17/112/113 19/111/113 20/102/113 21/101/113 22/129/113 23/122/113 24/119/113 25/115/113 26/108/113 27/107/113 28/98/113 29/97/113 30/126/113 31/125/113 32/121/113 18/117/113
s 1
f 104/30/30 102/23/23 44/24/24 45/31/31
l 6 22
l 23 7
l 11 27
l 28 12
l 16 32
l 18 1
l 4 20
l 21 5
l 9 25
l 26 10
l 14 30
l 31 15
l 2 17
l 19 3
l 24 8
l 29 13
